<svg xmlns="http://www.w3.org/2000/svg" xmlns:xlink="http://www.w3.org/1999/xlink" width="389" zoomAndPan="magnify" viewBox="0 0 291.75 44.999999" height="60" preserveAspectRatio="xMidYMid meet" version="1.0"><defs><g/><clipPath id="95b28c9386"><path d="M 113 9 L 127.484375 9 L 127.484375 29 L 113 29 Z M 113 9 " clip-rule="nonzero"/></clipPath><clipPath id="3779a3cbd4"><rect x="0" width="128" y="0" height="30"/></clipPath><clipPath id="7f9ef1f72f"><path d="M 130 7 L 139.957031 7 L 139.957031 19 L 130 19 Z M 130 7 " clip-rule="nonzero"/></clipPath><clipPath id="5a453bbb31"><rect x="0" width="140" y="0" height="26"/></clipPath></defs><g transform="matrix(1, 0, 0, 1, 8, 7)"><g clip-path="url(#3779a3cbd4)"><g fill="#ffffff" fill-opacity="1"><g transform="translate(0.525509, 21.685895)"><g><path d="M 8.421875 -19.421875 C 9.453125 -19.421875 10.457031 -19.269531 11.4375 -18.96875 C 12.425781 -18.664062 13.160156 -18.367188 13.640625 -18.078125 L 14.34375 -17.625 L 12.578125 -14.15625 C 12.441406 -14.25 12.25 -14.367188 12 -14.515625 C 11.75 -14.660156 11.285156 -14.851562 10.609375 -15.09375 C 9.929688 -15.34375 9.300781 -15.46875 8.71875 -15.46875 C 7.988281 -15.46875 7.425781 -15.3125 7.03125 -15 C 6.644531 -14.695312 6.453125 -14.285156 6.453125 -13.765625 C 6.453125 -13.492188 6.539062 -13.25 6.71875 -13.03125 C 6.90625 -12.8125 7.222656 -12.570312 7.671875 -12.3125 C 8.117188 -12.0625 8.507812 -11.859375 8.84375 -11.703125 C 9.1875 -11.546875 9.710938 -11.3125 10.421875 -11 C 11.660156 -10.476562 12.710938 -9.765625 13.578125 -8.859375 C 14.453125 -7.960938 14.890625 -6.941406 14.890625 -5.796875 C 14.890625 -4.703125 14.691406 -3.75 14.296875 -2.9375 C 13.910156 -2.125 13.375 -1.484375 12.6875 -1.015625 C 12 -0.554688 11.238281 -0.21875 10.40625 0 C 9.570312 0.226562 8.671875 0.34375 7.703125 0.34375 C 6.867188 0.34375 6.050781 0.257812 5.25 0.09375 C 4.445312 -0.0703125 3.773438 -0.28125 3.234375 -0.53125 C 2.691406 -0.789062 2.207031 -1.046875 1.78125 -1.296875 C 1.351562 -1.546875 1.035156 -1.753906 0.828125 -1.921875 L 0.53125 -2.171875 L 2.703125 -5.828125 C 2.890625 -5.671875 3.144531 -5.472656 3.46875 -5.234375 C 3.789062 -4.992188 4.363281 -4.671875 5.1875 -4.265625 C 6.007812 -3.867188 6.738281 -3.671875 7.375 -3.671875 C 9.207031 -3.671875 10.125 -4.296875 10.125 -5.546875 C 10.125 -5.804688 10.054688 -6.046875 9.921875 -6.265625 C 9.796875 -6.492188 9.566406 -6.71875 9.234375 -6.9375 C 8.898438 -7.164062 8.609375 -7.34375 8.359375 -7.46875 C 8.109375 -7.601562 7.691406 -7.804688 7.109375 -8.078125 C 6.535156 -8.347656 6.109375 -8.550781 5.828125 -8.6875 C 4.671875 -9.257812 3.773438 -9.972656 3.140625 -10.828125 C 2.515625 -11.691406 2.203125 -12.613281 2.203125 -13.59375 C 2.203125 -15.3125 2.832031 -16.710938 4.09375 -17.796875 C 5.351562 -18.878906 6.796875 -19.421875 8.421875 -19.421875 Z M 8.421875 -19.421875 "/></g></g></g><g fill="#ffffff" fill-opacity="1"><g transform="translate(14.928692, 21.685895)"><g><path d="M 2.1875 -1.46875 C 1.082031 -2.675781 0.53125 -4.160156 0.53125 -5.921875 C 0.53125 -7.679688 1.082031 -9.164062 2.1875 -10.375 C 3.300781 -11.59375 4.710938 -12.203125 6.421875 -12.203125 C 7.992188 -12.203125 9.289062 -11.710938 10.3125 -10.734375 L 10.3125 -11.859375 L 14.40625 -11.859375 L 14.40625 0 L 10.359375 0 L 10.359375 -1.34375 L 10.3125 -1.34375 C 9.289062 -0.21875 7.992188 0.34375 6.421875 0.34375 C 4.710938 0.34375 3.300781 -0.257812 2.1875 -1.46875 Z M 5.671875 -7.921875 C 5.140625 -7.398438 4.875 -6.726562 4.875 -5.90625 C 4.875 -5.09375 5.128906 -4.425781 5.640625 -3.90625 C 6.148438 -3.394531 6.820312 -3.140625 7.65625 -3.140625 C 8.457031 -3.140625 9.113281 -3.398438 9.625 -3.921875 C 10.144531 -4.453125 10.40625 -5.117188 10.40625 -5.921875 C 10.40625 -6.734375 10.140625 -7.398438 9.609375 -7.921875 C 9.078125 -8.453125 8.425781 -8.71875 7.65625 -8.71875 C 6.863281 -8.71875 6.203125 -8.453125 5.671875 -7.921875 Z M 5.671875 -7.921875 "/></g></g></g><g fill="#ffffff" fill-opacity="1"><g transform="translate(29.586185, 21.685895)"><g><path d="M 1.78125 -18.46875 C 2.257812 -18.945312 2.828125 -19.1875 3.484375 -19.1875 C 4.148438 -19.1875 4.722656 -18.945312 5.203125 -18.46875 C 5.679688 -18 5.921875 -17.429688 5.921875 -16.765625 C 5.921875 -16.097656 5.679688 -15.523438 5.203125 -15.046875 C 4.722656 -14.578125 4.148438 -14.34375 3.484375 -14.34375 C 2.828125 -14.34375 2.257812 -14.578125 1.78125 -15.046875 C 1.300781 -15.523438 1.0625 -16.097656 1.0625 -16.765625 C 1.0625 -17.429688 1.300781 -18 1.78125 -18.46875 Z M 1.390625 -11.859375 L 1.390625 0 L 5.484375 0 L 5.484375 -11.859375 Z M 1.390625 -11.859375 "/></g></g></g><g fill="#ffffff" fill-opacity="1"><g transform="translate(35.435251, 21.685895)"><g><path d="M 1.390625 0 L 1.390625 -11.859375 L 5.484375 -11.859375 L 5.484375 -10.609375 L 5.53125 -10.609375 C 6.59375 -11.671875 7.722656 -12.203125 8.921875 -12.203125 C 9.515625 -12.203125 10.097656 -12.125 10.671875 -11.96875 C 11.253906 -11.820312 11.8125 -11.585938 12.34375 -11.265625 C 12.875 -10.941406 13.300781 -10.484375 13.625 -9.890625 C 13.957031 -9.296875 14.125 -8.601562 14.125 -7.8125 L 14.125 0 L 10.03125 0 L 10.03125 -6.703125 C 10.03125 -7.316406 9.832031 -7.851562 9.4375 -8.3125 C 9.050781 -8.78125 8.539062 -9.015625 7.90625 -9.015625 C 7.289062 -9.015625 6.734375 -8.773438 6.234375 -8.296875 C 5.734375 -7.816406 5.484375 -7.285156 5.484375 -6.703125 L 5.484375 0 Z M 1.390625 0 "/></g></g></g><g fill="#ffffff" fill-opacity="1"><g transform="translate(49.584121, 21.685895)"><g><path d="M 2.078125 -11.859375 L 2.078125 -16.28125 L 6.171875 -16.28125 L 6.171875 -11.859375 L 8.671875 -11.859375 L 8.671875 -8.734375 L 6.171875 -8.734375 L 6.171875 -4.96875 C 6.171875 -3.875 6.476562 -3.328125 7.09375 -3.328125 C 7.25 -3.328125 7.410156 -3.359375 7.578125 -3.421875 C 7.753906 -3.484375 7.890625 -3.546875 7.984375 -3.609375 L 8.109375 -3.703125 L 9.140625 -0.390625 C 8.253906 0.0976562 7.25 0.34375 6.125 0.34375 C 5.351562 0.34375 4.691406 0.207031 4.140625 -0.0625 C 3.585938 -0.332031 3.164062 -0.691406 2.875 -1.140625 C 2.59375 -1.597656 2.390625 -2.078125 2.265625 -2.578125 C 2.140625 -3.078125 2.078125 -3.613281 2.078125 -4.1875 L 2.078125 -8.734375 L 0.375 -8.734375 L 0.375 -11.859375 Z M 2.078125 -11.859375 "/></g></g></g><g fill="#ffffff" fill-opacity="1"><g transform="translate(57.583275, 21.685895)"><g/></g></g><g fill="#ffffff" fill-opacity="1"><g transform="translate(62.761879, 21.685895)"><g><path d="M 0.859375 2.90625 L 4.203125 1.265625 C 4.828125 2.285156 5.898438 2.796875 7.421875 2.796875 C 8.128906 2.796875 8.785156 2.566406 9.390625 2.109375 C 10.003906 1.660156 10.3125 0.960938 10.3125 0.015625 L 10.3125 -0.859375 C 9.59375 -0.0546875 8.296875 0.34375 6.421875 0.34375 C 4.710938 0.34375 3.300781 -0.257812 2.1875 -1.46875 C 1.082031 -2.675781 0.53125 -4.160156 0.53125 -5.921875 C 0.53125 -7.679688 1.082031 -9.164062 2.1875 -10.375 C 3.300781 -11.59375 4.710938 -12.203125 6.421875 -12.203125 C 7.953125 -12.203125 9.226562 -11.734375 10.25 -10.796875 L 10.3125 -10.796875 L 10.3125 -11.859375 L 14.40625 -11.859375 L 14.40625 0.328125 C 14.40625 2.253906 13.765625 3.738281 12.484375 4.78125 C 11.203125 5.832031 9.515625 6.359375 7.421875 6.359375 C 4.023438 6.359375 1.835938 5.207031 0.859375 2.90625 Z M 5.671875 -7.921875 C 5.140625 -7.398438 4.875 -6.726562 4.875 -5.90625 C 4.875 -5.09375 5.128906 -4.425781 5.640625 -3.90625 C 6.148438 -3.394531 6.820312 -3.140625 7.65625 -3.140625 C 8.457031 -3.140625 9.113281 -3.398438 9.625 -3.921875 C 10.144531 -4.453125 10.40625 -5.117188 10.40625 -5.921875 C 10.40625 -6.734375 10.140625 -7.398438 9.609375 -7.921875 C 9.078125 -8.453125 8.425781 -8.71875 7.65625 -8.71875 C 6.863281 -8.71875 6.203125 -8.453125 5.671875 -7.921875 Z M 5.671875 -7.921875 "/></g></g></g><g fill="#ffffff" fill-opacity="1"><g transform="translate(77.419373, 21.685895)"><g><path d="M 4.03125 -12.8125 C 4.769531 -12.8125 5.394531 -12.550781 5.90625 -12.03125 C 6.425781 -11.519531 6.6875 -10.894531 6.6875 -10.15625 C 6.6875 -9.425781 6.425781 -8.800781 5.90625 -8.28125 C 5.394531 -7.769531 4.769531 -7.515625 4.03125 -7.515625 C 3.300781 -7.515625 2.675781 -7.769531 2.15625 -8.28125 C 1.644531 -8.800781 1.390625 -9.425781 1.390625 -10.15625 C 1.390625 -10.894531 1.644531 -11.519531 2.15625 -12.03125 C 2.675781 -12.550781 3.300781 -12.8125 4.03125 -12.8125 Z M 4.03125 -4.953125 C 3.300781 -4.953125 2.675781 -4.691406 2.15625 -4.171875 C 1.644531 -3.660156 1.390625 -3.035156 1.390625 -2.296875 C 1.390625 -1.691406 1.570312 -1.164062 1.9375 -0.71875 C 2.3125 -0.28125 2.789062 0.00390625 3.375 0.140625 C 3.269531 0.710938 3.066406 1.265625 2.765625 1.796875 C 2.472656 2.335938 2.210938 2.738281 1.984375 3 L 1.625 3.375 L 2.796875 4.34375 C 5.390625 2.207031 6.6875 -0.00390625 6.6875 -2.296875 C 6.6875 -3.035156 6.425781 -3.660156 5.90625 -4.171875 C 5.394531 -4.691406 4.769531 -4.953125 4.03125 -4.953125 Z M 4.03125 -4.953125 "/></g></g></g><g fill="#ffffff" fill-opacity="1"><g transform="translate(84.355045, 21.685895)"><g><path d="M 2.5 -1.40625 C 1.1875 -2.582031 0.53125 -4.085938 0.53125 -5.921875 C 0.53125 -7.753906 1.210938 -9.257812 2.578125 -10.4375 C 3.953125 -11.613281 5.648438 -12.203125 7.671875 -12.203125 C 9.660156 -12.203125 11.335938 -11.609375 12.703125 -10.421875 C 14.066406 -9.242188 14.75 -7.742188 14.75 -5.921875 C 14.75 -4.097656 14.082031 -2.597656 12.75 -1.421875 C 11.414062 -0.242188 9.722656 0.34375 7.671875 0.34375 C 5.546875 0.34375 3.820312 -0.238281 2.5 -1.40625 Z M 5.671875 -7.921875 C 5.140625 -7.398438 4.875 -6.726562 4.875 -5.90625 C 4.875 -5.09375 5.128906 -4.425781 5.640625 -3.90625 C 6.148438 -3.394531 6.820312 -3.140625 7.65625 -3.140625 C 8.457031 -3.140625 9.113281 -3.398438 9.625 -3.921875 C 10.144531 -4.453125 10.40625 -5.117188 10.40625 -5.921875 C 10.40625 -6.734375 10.140625 -7.398438 9.609375 -7.921875 C 9.078125 -8.453125 8.425781 -8.71875 7.65625 -8.71875 C 6.863281 -8.71875 6.203125 -8.453125 5.671875 -7.921875 Z M 5.671875 -7.921875 "/></g></g></g><g fill="#ffffff" fill-opacity="1"><g transform="translate(98.503911, 21.685895)"><g><path d="M 1.390625 0 L 1.390625 -11.859375 L 5.484375 -11.859375 L 5.484375 -10.609375 L 5.53125 -10.609375 C 6.59375 -11.671875 7.722656 -12.203125 8.921875 -12.203125 C 9.515625 -12.203125 10.097656 -12.125 10.671875 -11.96875 C 11.253906 -11.820312 11.8125 -11.585938 12.34375 -11.265625 C 12.875 -10.941406 13.300781 -10.484375 13.625 -9.890625 C 13.957031 -9.296875 14.125 -8.601562 14.125 -7.8125 L 14.125 0 L 10.03125 0 L 10.03125 -6.703125 C 10.03125 -7.316406 9.832031 -7.851562 9.4375 -8.3125 C 9.050781 -8.78125 8.539062 -9.015625 7.90625 -9.015625 C 7.289062 -9.015625 6.734375 -8.773438 6.234375 -8.296875 C 5.734375 -7.816406 5.484375 -7.285156 5.484375 -6.703125 L 5.484375 0 Z M 1.390625 0 "/></g></g></g><g clip-path="url(#95b28c9386)"><g fill="#ffffff" fill-opacity="1"><g transform="translate(112.652777, 21.685895)"><g><path d="M 0.859375 2.90625 L 4.203125 1.265625 C 4.828125 2.285156 5.898438 2.796875 7.421875 2.796875 C 8.128906 2.796875 8.785156 2.566406 9.390625 2.109375 C 10.003906 1.660156 10.3125 0.960938 10.3125 0.015625 L 10.3125 -0.859375 C 9.59375 -0.0546875 8.296875 0.34375 6.421875 0.34375 C 4.710938 0.34375 3.300781 -0.257812 2.1875 -1.46875 C 1.082031 -2.675781 0.53125 -4.160156 0.53125 -5.921875 C 0.53125 -7.679688 1.082031 -9.164062 2.1875 -10.375 C 3.300781 -11.59375 4.710938 -12.203125 6.421875 -12.203125 C 7.953125 -12.203125 9.226562 -11.734375 10.25 -10.796875 L 10.3125 -10.796875 L 10.3125 -11.859375 L 14.40625 -11.859375 L 14.40625 0.328125 C 14.40625 2.253906 13.765625 3.738281 12.484375 4.78125 C 11.203125 5.832031 9.515625 6.359375 7.421875 6.359375 C 4.023438 6.359375 1.835938 5.207031 0.859375 2.90625 Z M 5.671875 -7.921875 C 5.140625 -7.398438 4.875 -6.726562 4.875 -5.90625 C 4.875 -5.09375 5.128906 -4.425781 5.640625 -3.90625 C 6.148438 -3.394531 6.820312 -3.140625 7.65625 -3.140625 C 8.457031 -3.140625 9.113281 -3.398438 9.625 -3.921875 C 10.144531 -4.453125 10.40625 -5.117188 10.40625 -5.921875 C 10.40625 -6.734375 10.140625 -7.398438 9.609375 -7.921875 C 9.078125 -8.453125 8.425781 -8.71875 7.65625 -8.71875 C 6.863281 -8.71875 6.203125 -8.453125 5.671875 -7.921875 Z M 5.671875 -7.921875 "/></g></g></g></g></g></g><g transform="matrix(1, 0, 0, 1, 143, 9)"><g clip-path="url(#5a453bbb31)"><g fill="#ffffff" fill-opacity="1"><g transform="translate(0.519622, 18.271785)"><g><path d="M 1.1875 0 L 1.1875 -17 L 4.203125 -17 L 4.203125 0 Z M 1.1875 0 "/></g></g></g><g fill="#ffffff" fill-opacity="1"><g transform="translate(4.947982, 18.271785)"><g/></g></g><g fill="#ffffff" fill-opacity="1"><g transform="translate(9.375313, 18.271785)"><g/></g></g><g fill="#ffffff" fill-opacity="1"><g transform="translate(13.804703, 18.271785)"><g><path d="M 8.28125 -16.3125 L 8.28125 -4.609375 C 8.28125 -3.015625 7.84375 -1.796875 6.96875 -0.953125 C 6.09375 -0.117188 4.835938 0.296875 3.203125 0.296875 C 2.765625 0.296875 2.332031 0.242188 1.90625 0.140625 C 1.488281 0.0351562 1.132812 -0.0859375 0.84375 -0.234375 C 0.5625 -0.390625 0.300781 -0.546875 0.0625 -0.703125 C -0.164062 -0.867188 -0.332031 -1.003906 -0.4375 -1.109375 L -0.609375 -1.265625 L 0.578125 -4.375 C 1.347656 -3.632812 2.050781 -3.265625 2.6875 -3.265625 C 3.25 -3.265625 3.703125 -3.453125 4.046875 -3.828125 C 4.390625 -4.203125 4.5625 -4.773438 4.5625 -5.546875 L 4.5625 -16.3125 Z M 8.28125 -16.3125 "/></g></g></g><g fill="#ffffff" fill-opacity="1"><g transform="translate(22.10609, 18.271785)"><g><path d="M 2.140625 -1.203125 C 1.015625 -2.203125 0.453125 -3.484375 0.453125 -5.046875 C 0.453125 -6.617188 1.035156 -7.910156 2.203125 -8.921875 C 3.378906 -9.929688 4.832031 -10.4375 6.5625 -10.4375 C 8.257812 -10.4375 9.691406 -9.925781 10.859375 -8.90625 C 12.023438 -7.894531 12.609375 -6.613281 12.609375 -5.0625 C 12.609375 -3.507812 12.035156 -2.226562 10.890625 -1.21875 C 9.753906 -0.207031 8.3125 0.296875 6.5625 0.296875 C 4.738281 0.296875 3.265625 -0.203125 2.140625 -1.203125 Z M 4.84375 -6.78125 C 4.394531 -6.332031 4.171875 -5.757812 4.171875 -5.0625 C 4.171875 -4.363281 4.382812 -3.789062 4.8125 -3.34375 C 5.25 -2.90625 5.828125 -2.6875 6.546875 -2.6875 C 7.222656 -2.6875 7.78125 -2.910156 8.21875 -3.359375 C 8.664062 -3.804688 8.890625 -4.375 8.890625 -5.0625 C 8.890625 -5.757812 8.660156 -6.332031 8.203125 -6.78125 C 7.753906 -7.226562 7.203125 -7.453125 6.546875 -7.453125 C 5.867188 -7.453125 5.300781 -7.226562 4.84375 -6.78125 Z M 4.84375 -6.78125 "/></g></g></g><g fill="#ffffff" fill-opacity="1"><g transform="translate(34.202472, 18.271785)"><g><path d="M 11.625 -8.875 C 12.570312 -7.832031 13.046875 -6.5625 13.046875 -5.0625 C 13.046875 -3.5625 12.570312 -2.289062 11.625 -1.25 C 10.675781 -0.21875 9.46875 0.296875 8 0.296875 C 6.65625 0.296875 5.550781 -0.179688 4.6875 -1.140625 L 4.640625 -1.140625 L 4.640625 0 L 1.1875 0 L 1.1875 -17 L 4.6875 -17 L 4.6875 -9.171875 C 5.550781 -10.015625 6.65625 -10.4375 8 -10.4375 C 9.46875 -10.4375 10.675781 -9.914062 11.625 -8.875 Z M 8.671875 -3.34375 C 9.109375 -3.789062 9.328125 -4.363281 9.328125 -5.0625 C 9.328125 -5.757812 9.097656 -6.332031 8.640625 -6.78125 C 8.191406 -7.226562 7.628906 -7.453125 6.953125 -7.453125 C 6.296875 -7.453125 5.738281 -7.226562 5.28125 -6.78125 C 4.832031 -6.332031 4.609375 -5.757812 4.609375 -5.0625 C 4.609375 -4.375 4.828125 -3.804688 5.265625 -3.359375 C 5.703125 -2.910156 6.265625 -2.6875 6.953125 -2.6875 C 7.671875 -2.6875 8.242188 -2.90625 8.671875 -3.34375 Z M 8.671875 -3.34375 "/></g></g></g><g fill="#ffffff" fill-opacity="1"><g transform="translate(46.733694, 18.271785)"><g/></g></g><g fill="#ffffff" fill-opacity="1"><g transform="translate(51.161025, 18.271785)"><g><path d="M 14.671875 0 L 13.890625 -9.671875 L 13.796875 -9.671875 L 10.453125 -0.09375 L 8.25 -0.09375 L 4.90625 -9.671875 L 4.796875 -9.671875 L 4.03125 0 L 0.3125 0 L 1.78125 -16.3125 L 5.734375 -16.3125 L 9.34375 -6.890625 L 12.96875 -16.3125 L 16.921875 -16.3125 L 18.375 0 Z M 14.671875 0 "/></g></g></g><g fill="#ffffff" fill-opacity="1"><g transform="translate(68.890601, 18.271785)"><g><path d="M 1.875 -1.25 C 0.925781 -2.289062 0.453125 -3.5625 0.453125 -5.0625 C 0.453125 -6.5625 0.925781 -7.832031 1.875 -8.875 C 2.820312 -9.914062 4.03125 -10.4375 5.5 -10.4375 C 6.84375 -10.4375 7.945312 -10.015625 8.8125 -9.171875 L 8.8125 -10.140625 L 12.3125 -10.140625 L 12.3125 0 L 8.859375 0 L 8.859375 -1.140625 L 8.8125 -1.140625 C 7.945312 -0.179688 6.84375 0.296875 5.5 0.296875 C 4.03125 0.296875 2.820312 -0.21875 1.875 -1.25 Z M 4.84375 -6.78125 C 4.394531 -6.332031 4.171875 -5.757812 4.171875 -5.0625 C 4.171875 -4.363281 4.382812 -3.789062 4.8125 -3.34375 C 5.25 -2.90625 5.828125 -2.6875 6.546875 -2.6875 C 7.222656 -2.6875 7.78125 -2.910156 8.21875 -3.359375 C 8.664062 -3.804688 8.890625 -4.375 8.890625 -5.0625 C 8.890625 -5.757812 8.660156 -6.332031 8.203125 -6.78125 C 7.753906 -7.226562 7.203125 -7.453125 6.546875 -7.453125 C 5.867188 -7.453125 5.300781 -7.226562 4.84375 -6.78125 Z M 4.84375 -6.78125 "/></g></g></g><g fill="#ffffff" fill-opacity="1"><g transform="translate(81.421823, 18.271785)"><g><path d="M 1.1875 0 L 1.1875 -10.140625 L 4.6875 -10.140625 L 4.6875 -9.078125 L 4.71875 -9.078125 C 5.632812 -9.984375 6.601562 -10.4375 7.625 -10.4375 C 8.125 -10.4375 8.617188 -10.367188 9.109375 -10.234375 C 9.609375 -10.109375 10.085938 -9.90625 10.546875 -9.625 C 11.003906 -9.34375 11.375 -8.945312 11.65625 -8.4375 C 11.9375 -7.9375 12.078125 -7.351562 12.078125 -6.6875 L 12.078125 0 L 8.578125 0 L 8.578125 -5.734375 C 8.578125 -6.253906 8.40625 -6.710938 8.0625 -7.109375 C 7.726562 -7.503906 7.296875 -7.703125 6.765625 -7.703125 C 6.234375 -7.703125 5.753906 -7.5 5.328125 -7.09375 C 4.898438 -6.6875 4.6875 -6.234375 4.6875 -5.734375 L 4.6875 0 Z M 1.1875 0 "/></g></g></g><g fill="#ffffff" fill-opacity="1"><g transform="translate(93.518204, 18.271785)"><g><path d="M 1.875 -1.25 C 0.925781 -2.289062 0.453125 -3.5625 0.453125 -5.0625 C 0.453125 -6.5625 0.925781 -7.832031 1.875 -8.875 C 2.820312 -9.914062 4.03125 -10.4375 5.5 -10.4375 C 6.84375 -10.4375 7.945312 -10.015625 8.8125 -9.171875 L 8.8125 -10.140625 L 12.3125 -10.140625 L 12.3125 0 L 8.859375 0 L 8.859375 -1.140625 L 8.8125 -1.140625 C 7.945312 -0.179688 6.84375 0.296875 5.5 0.296875 C 4.03125 0.296875 2.820312 -0.21875 1.875 -1.25 Z M 4.84375 -6.78125 C 4.394531 -6.332031 4.171875 -5.757812 4.171875 -5.0625 C 4.171875 -4.363281 4.382812 -3.789062 4.8125 -3.34375 C 5.25 -2.90625 5.828125 -2.6875 6.546875 -2.6875 C 7.222656 -2.6875 7.78125 -2.910156 8.21875 -3.359375 C 8.664062 -3.804688 8.890625 -4.375 8.890625 -5.0625 C 8.890625 -5.757812 8.660156 -6.332031 8.203125 -6.78125 C 7.753906 -7.226562 7.203125 -7.453125 6.546875 -7.453125 C 5.867188 -7.453125 5.300781 -7.226562 4.84375 -6.78125 Z M 4.84375 -6.78125 "/></g></g></g><g fill="#ffffff" fill-opacity="1"><g transform="translate(106.049427, 18.271785)"><g><path d="M 0.734375 2.484375 L 3.59375 1.09375 C 4.125 1.957031 5.039062 2.390625 6.34375 2.390625 C 6.945312 2.390625 7.507812 2.191406 8.03125 1.796875 C 8.550781 1.410156 8.8125 0.816406 8.8125 0.015625 L 8.8125 -0.734375 C 8.195312 -0.046875 7.09375 0.296875 5.5 0.296875 C 4.03125 0.296875 2.820312 -0.21875 1.875 -1.25 C 0.925781 -2.289062 0.453125 -3.5625 0.453125 -5.0625 C 0.453125 -6.5625 0.925781 -7.832031 1.875 -8.875 C 2.820312 -9.914062 4.03125 -10.4375 5.5 -10.4375 C 6.800781 -10.4375 7.882812 -10.035156 8.75 -9.234375 L 8.8125 -9.234375 L 8.8125 -10.140625 L 12.3125 -10.140625 L 12.3125 0.28125 C 12.3125 1.925781 11.765625 3.195312 10.671875 4.09375 C 9.578125 4.988281 8.132812 5.4375 6.34375 5.4375 C 3.445312 5.4375 1.578125 4.453125 0.734375 2.484375 Z M 4.84375 -6.78125 C 4.394531 -6.332031 4.171875 -5.757812 4.171875 -5.0625 C 4.171875 -4.363281 4.382812 -3.789062 4.8125 -3.34375 C 5.25 -2.90625 5.828125 -2.6875 6.546875 -2.6875 C 7.222656 -2.6875 7.78125 -2.910156 8.21875 -3.359375 C 8.664062 -3.804688 8.890625 -4.375 8.890625 -5.0625 C 8.890625 -5.757812 8.660156 -6.332031 8.203125 -6.78125 C 7.753906 -7.226562 7.203125 -7.453125 6.546875 -7.453125 C 5.867188 -7.453125 5.300781 -7.226562 4.84375 -6.78125 Z M 4.84375 -6.78125 "/></g></g></g><g fill="#ffffff" fill-opacity="1"><g transform="translate(118.580649, 18.271785)"><g><path d="M 11.4375 -4.578125 L 4.09375 -4.578125 C 4.09375 -3.867188 4.320312 -3.34375 4.78125 -3 C 5.238281 -2.65625 5.738281 -2.484375 6.28125 -2.484375 C 6.851562 -2.484375 7.300781 -2.554688 7.625 -2.703125 C 7.957031 -2.859375 8.332031 -3.160156 8.75 -3.609375 L 11.28125 -2.359375 C 10.226562 -0.585938 8.476562 0.296875 6.03125 0.296875 C 4.5 0.296875 3.1875 -0.222656 2.09375 -1.265625 C 1 -2.316406 0.453125 -3.582031 0.453125 -5.0625 C 0.453125 -6.539062 1 -7.804688 2.09375 -8.859375 C 3.1875 -9.910156 4.5 -10.4375 6.03125 -10.4375 C 7.632812 -10.4375 8.941406 -9.972656 9.953125 -9.046875 C 10.960938 -8.117188 11.46875 -6.789062 11.46875 -5.0625 C 11.46875 -4.820312 11.457031 -4.660156 11.4375 -4.578125 Z M 4.1875 -6.515625 L 8.046875 -6.515625 C 7.960938 -7.046875 7.753906 -7.453125 7.421875 -7.734375 C 7.085938 -8.015625 6.65625 -8.15625 6.125 -8.15625 C 5.539062 -8.15625 5.078125 -8.003906 4.734375 -7.703125 C 4.398438 -7.398438 4.21875 -7.003906 4.1875 -6.515625 Z M 4.1875 -6.515625 "/></g></g></g><g clip-path="url(#7f9ef1f72f)"><g fill="#ffffff" fill-opacity="1"><g transform="translate(129.530622, 18.271785)"><g><path d="M 1.1875 0 L 1.1875 -10.140625 L 4.6875 -10.140625 L 4.6875 -8.671875 L 4.71875 -8.671875 C 4.75 -8.722656 4.789062 -8.789062 4.84375 -8.875 C 4.90625 -8.957031 5.035156 -9.097656 5.234375 -9.296875 C 5.429688 -9.492188 5.640625 -9.671875 5.859375 -9.828125 C 6.085938 -9.984375 6.378906 -10.125 6.734375 -10.25 C 7.097656 -10.375 7.460938 -10.4375 7.828125 -10.4375 C 8.210938 -10.4375 8.585938 -10.382812 8.953125 -10.28125 C 9.316406 -10.175781 9.585938 -10.070312 9.765625 -9.96875 L 10.046875 -9.796875 L 8.578125 -6.84375 C 8.140625 -7.207031 7.535156 -7.390625 6.765625 -7.390625 C 6.335938 -7.390625 5.972656 -7.296875 5.671875 -7.109375 C 5.367188 -6.929688 5.15625 -6.707031 5.03125 -6.4375 C 4.90625 -6.175781 4.816406 -5.953125 4.765625 -5.765625 C 4.710938 -5.585938 4.6875 -5.445312 4.6875 -5.34375 L 4.6875 0 Z M 1.1875 0 "/></g></g></g></g></g></g></svg>